# xmcd
#
# Track frame offsets: 
#        150
#        22273
#        41162
#        65450
#        77135
#        95265
#        121527
#        150783
#        174721
#        184333
#        189738
#        223664
#        259983
#
# Disc length: 3736 seconds
#
# Revision: 4
# Processed by: cddbd v1.5.2PL0 Copyright (c) Steve Scherf et al.
# Submitted via: ExactAudioCopy v0.99pb4
#
DISCID=b20e960d
DTITLE=Marvin Gaye - Rockin' After Midnight - Last Concert
DYEAR=1983
DGENRE=Soul
TTITLE0=I Heard It Through The Grapevine
TTITLE1=Come Get To This
TTITLE2=Let's Get It On
TTITLE3=God Is Love
TTITLE4=What's Going On
TTITLE5=Inner City Blues
TTITLE6=Joy
TTITLE7=Ain't Nothing Like The Real Thing
TTITLE8=Your Precious Love
TTITLE9=If This World Were Mine
TTITLE10=Rockin' After Midnight
TTITLE11=Distant Lover
TTITLE12=Sexual Healing
EXTD=Soul Music YEAR: 1993
EXTT0=
EXTT1=
EXTT2=
EXTT3=
EXTT4=
EXTT5=
EXTT6=
EXTT7=
EXTT8=
EXTT9=
EXTT10=
EXTT11=
EXTT12=
PLAYORDER=
